<?xml version="1.0" encoding="iso-8859-1"?>
<!-- Generator: Adobe Illustrator 19.0.0, SVG Export Plug-In . SVG Version: 6.00 Build 0)  -->
<svg version="1.1" id="Layer_1" xmlns="http://www.w3.org/2000/svg" xmlns:xlink="http://www.w3.org/1999/xlink" x="0px" y="0px"
	 viewBox="0 0 512 512" style="enable-background:new 0 0 512 512;" xml:space="preserve">
<path style="fill:#5D9BEB;" d="M512,256.006C512,397.402,397.394,512.004,256.004,512C114.606,512.004,0,397.402,0,256.006
	C-0.007,114.61,114.606,0,256.004,0C397.394,0,512,114.614,512,256.006z"/>
<path style="fill:#4988DB;" d="M510.768,280.99c-0.112-0.111-0.222-0.224-0.334-0.335c-0.542-0.548-138.178-138.186-138.725-138.725
	C342.203,112.003,301.25,93.391,256,93.391c-89.665,0-162.609,72.946-162.609,162.609c0,45.246,18.611,86.197,48.537,115.705
	c0.542,0.549,138.179,138.187,138.73,138.73c0.112,0.113,0.224,0.224,0.336,0.336C402.427,499.007,499.005,402.43,510.768,280.99z"
	/>
<g>
	<path style="fill:#F4F6F9;" d="M277.21,305.489h-96.051l30.351-30.351c2.762-2.762,2.762-7.235,0-9.997
		c-2.762-2.762-7.235-2.762-9.997,0l-42.419,42.419c-2.762,2.762-2.762,7.235,0,9.997l42.419,42.419
		c1.381,1.381,3.189,2.071,4.998,2.071c1.809,0,3.618-0.69,4.998-2.071c2.762-2.762,2.762-7.235,0-9.997l-30.351-30.351h96.051
		c3.908,0,7.07-3.166,7.07-7.07C284.279,308.655,281.118,305.489,277.21,305.489z"/>
	<path style="fill:#F4F6F9;" d="M310.489,152.022c-2.762-2.762-7.235-2.762-9.997,0c-2.762,2.762-2.762,7.235,0,9.997l30.351,30.351
		h-96.051c-3.908,0-7.07,3.166-7.07,7.07s3.162,7.07,7.07,7.07h96.051l-30.351,30.351c-2.762,2.762-2.762,7.235,0,9.997
		c1.381,1.381,3.189,2.071,4.998,2.071s3.618-0.69,4.998-2.071l42.419-42.419c2.762-2.762,2.762-7.235,0-9.997L310.489,152.022z"/>
	<path style="fill:#F4F6F9;" d="M256,93.392c-89.665,0-162.608,72.946-162.608,162.608S166.335,418.608,256,418.608
		S418.608,345.662,418.608,256S345.665,93.392,256,93.392z M256,404.468c-81.863,0-148.468-66.602-148.468-148.468
		S174.137,107.532,256,107.532S404.468,174.133,404.468,256S337.863,404.468,256,404.468z"/>
</g>
<g>
</g>
<g>
</g>
<g>
</g>
<g>
</g>
<g>
</g>
<g>
</g>
<g>
</g>
<g>
</g>
<g>
</g>
<g>
</g>
<g>
</g>
<g>
</g>
<g>
</g>
<g>
</g>
<g>
</g>
</svg>
