<?xml version="1.0" encoding="iso-8859-1"?>
<!-- Generator: Adobe Illustrator 19.0.0, SVG Export Plug-In . SVG Version: 6.00 Build 0)  -->
<svg version="1.1" id="Layer_1" xmlns="http://www.w3.org/2000/svg" xmlns:xlink="http://www.w3.org/1999/xlink" x="0px" y="0px"
	 viewBox="0 0 512.001 512.001" style="enable-background:new 0 0 512.001 512.001;" xml:space="preserve">
<path style="fill:#5D9BEB;" d="M0.001,256.006c0,141.395,114.606,255.998,255.996,255.994
	c141.398,0.004,256.004-114.598,256.004-255.994C512.009,114.61,397.395,0,255.996,0C114.606,0,0.001,114.614,0.001,256.006z"/>
<path style="fill:#4988DB;" d="M504.406,317.975c-0.228-0.213-212.195-212.38-212.837-212.837c-0.455-0.641-0.992-1.175-1.633-1.632
	c-1.281-1.796-3.279-3.044-5.655-3.044H100.461c-3.907,0-7.07,3.166-7.07,7.07v296.937c0,2.377,1.249,4.377,3.046,5.659
	c0.457,0.641,92.388,92.572,93.028,93.028c0.026,0.035,0.065,0.055,0.09,0.09c21.194,5.68,43.453,8.756,66.441,8.756
	C376.019,512.003,476.696,429.417,504.406,317.975z"/>
<g>
	<path style="fill:#F4F6F9;" d="M284.28,340.839c-3.908,0-7.07,3.166-7.07,7.07v49.489H107.532V114.602H277.21v49.489
		c0,3.904,3.163,7.07,7.07,7.07c3.908,0,7.07-3.166,7.07-7.07v-56.559c0-3.904-3.162-7.07-7.07-7.07H100.462
		c-3.908,0-7.07,3.166-7.07,7.07v296.938c0,3.904,3.163,7.07,7.07,7.07h183.819c3.908,0,7.07-3.166,7.07-7.07V347.91
		C291.35,344.004,288.188,340.839,284.28,340.839z"/>
	<path style="fill:#F4F6F9;" d="M416.538,251.002l-70.7-70.7c-2.762-2.762-7.235-2.762-9.997,0c-2.762,2.762-2.762,7.235,0,9.997
		l58.63,58.63H178.231c-3.908,0-7.07,3.166-7.07,7.07c0,3.904,3.163,7.07,7.07,7.07h216.24l-58.63,58.63
		c-2.762,2.762-2.762,7.235,0,9.997c1.381,1.381,3.189,2.071,4.998,2.071s3.618-0.69,4.998-2.071l70.7-70.7
		C419.3,258.237,419.3,253.763,416.538,251.002z"/>
</g>
<g>
</g>
<g>
</g>
<g>
</g>
<g>
</g>
<g>
</g>
<g>
</g>
<g>
</g>
<g>
</g>
<g>
</g>
<g>
</g>
<g>
</g>
<g>
</g>
<g>
</g>
<g>
</g>
<g>
</g>
</svg>
