<?xml version="1.0" encoding="iso-8859-1"?>
<!-- Generator: Adobe Illustrator 19.0.0, SVG Export Plug-In . SVG Version: 6.00 Build 0)  -->
<svg version="1.1" id="Layer_1" xmlns="http://www.w3.org/2000/svg" xmlns:xlink="http://www.w3.org/1999/xlink" x="0px" y="0px"
	 viewBox="0 0 512 512" style="enable-background:new 0 0 512 512;" xml:space="preserve">
<path style="fill:#47CEAC;" d="M512,256.006C512,397.402,397.394,512.004,256.004,512C114.606,512.004,0,397.402,0,256.006
	C-0.007,114.61,114.606,0,256.004,0C397.394,0,512,114.614,512,256.006z"/>
<path style="fill:#36BB9A;" d="M511.712,267.373c-0.119-0.137-0.238-0.274-0.368-0.402
	c-0.223-0.221-132.713-132.715-132.993-132.992c-0.222-0.22-0.47-0.403-0.693-0.621c-0.281-0.282-0.518-0.594-0.801-0.874
	c-32.27-31.934-75.417-49.161-120.981-48.268c-46.031,0.791-89.349,19.387-121.969,52.361
	c-32.838,33.193-50.485,76.668-49.694,122.415c0.799,46.023,18.887,88.827,50.934,120.528c0.226,0.223,0.477,0.41,0.703,0.631
	c0.276,0.277,0.512,0.587,0.791,0.863c0.226,0.223,130.481,130.414,130.707,130.636c0.02,0.02,0.037,0.043,0.058,0.063
	C399.729,505.913,505.926,399.705,511.712,267.373z"/>
<g>
	<polygon style="fill:#F4F6F9;" points="427.788,253.013 427.788,253.017 427.788,253.017 	"/>
	<path style="fill:#F4F6F9;" d="M255.876,84.217c-46.032,0.791-89.349,19.387-121.969,52.361
		c-32.838,33.193-50.485,76.668-49.694,122.415c0.799,46.025,18.886,88.828,50.934,120.529
		c31.558,31.216,73.338,48.297,117.947,48.297c1.01,0,2.028-0.007,3.042-0.026c46.032-0.799,89.346-19.397,121.963-52.371
		c32.842-33.191,50.484-76.661,49.691-122.404c-0.799-46.028-18.883-88.831-50.93-120.532
		C344.588,100.55,301.441,83.323,255.876,84.217z M412.847,253.276c0.73,41.68-15.386,81.329-45.367,111.639
		c-29.862,30.179-69.497,47.206-111.606,47.936c-41.633,0.828-80.833-14.885-110.218-43.953
		c-29.261-28.94-45.773-68.066-46.502-110.166c-0.725-41.687,15.389-81.34,45.375-111.65
		c29.862-30.179,69.497-47.202,111.606-47.924c0.933-0.018,1.868-0.026,2.798-0.026c40.641,0,78.691,15.553,107.42,43.971
		c29.253,28.943,45.765,68.07,46.495,110.17C412.847,253.276,412.847,253.276,412.847,253.276z"/>
	<path style="fill:#F4F6F9;" d="M256,285.885c4.126,0,7.47-3.345,7.47-7.47V158.892c0-4.126-3.345-7.47-7.47-7.47
		c-4.126,0-7.47,3.345-7.47,7.47v119.522C248.53,282.54,251.874,285.885,256,285.885z"/>
	<path style="fill:#F4F6F9;" d="M256.007,315.765h-0.27c-8.241,0-14.821,6.954-14.675,15.195c0.139,8.17,6.798,14.686,14.93,14.686
		h0.27c8.241,0,14.821-6.954,14.675-15.195C270.791,322.281,264.14,315.765,256.007,315.765z"/>
</g>
<g>
</g>
<g>
</g>
<g>
</g>
<g>
</g>
<g>
</g>
<g>
</g>
<g>
</g>
<g>
</g>
<g>
</g>
<g>
</g>
<g>
</g>
<g>
</g>
<g>
</g>
<g>
</g>
<g>
</g>
</svg>
