<?xml version="1.0" encoding="utf-8"?>
<!-- Generator: Adobe Illustrator 16.0.0, SVG Export Plug-In . SVG Version: 6.00 Build 0)  -->
<!DOCTYPE svg PUBLIC "-//W3C//DTD SVG 1.1//EN" "http://www.w3.org/Graphics/SVG/1.1/DTD/svg11.dtd">
<svg version="1.1" id="Layer_1" xmlns="http://www.w3.org/2000/svg" xmlns:xlink="http://www.w3.org/1999/xlink" x="0px" y="0px"
	 width="800px" height="800px" viewBox="0 0 800 800" enable-background="new 0 0 800 800" xml:space="preserve">
<g>
	<g>
		<g>
			<g>
				<path d="M694.887,312.45c-1.912,1.911-4.576,1.074-7.152,0.266c-2.402-0.755-4.671-1.468-6.158,0.02
					c-1.488,1.488-0.776,3.757-0.021,6.158c0.81,2.577,1.646,5.241-0.265,7.152c-1.911,1.911-4.577,1.074-7.152,0.264
					c-2.402-0.755-4.67-1.467-6.158,0.02c-1.488,1.488-0.774,3.757-0.02,6.158c0.809,2.577,1.646,5.242-0.266,7.152
					c-1.91,1.911-4.574,1.074-7.15,0.264c-2.402-0.755-4.672-1.468-6.159,0.02c-1.487,1.487-0.773,3.755-0.02,6.158
					c0.809,2.577,1.646,5.241-0.264,7.151c-1.911,1.911-4.575,1.074-7.151,0.264c-2.401-0.755-4.67-1.468-6.157,0.02
					c-1.487,1.488-0.774,3.755-0.021,6.158c0.81,2.576,1.647,5.241-0.264,7.151c-1.909,1.911-4.574,1.073-7.15,0.264
					c-2.402-0.755-4.67-1.468-6.157,0.02c-1.487,1.487-0.776,3.756-0.021,6.157c0.81,2.577,1.647,5.241-0.264,7.151
					c-1.909,1.911-4.574,1.074-7.15,0.264c-2.402-0.755-4.67-1.468-6.157,0.019l-0.698-0.698c1.91-1.91,4.574-1.073,7.15-0.263
					c2.402,0.755,4.67,1.468,6.157-0.019c1.487-1.487,0.774-3.755,0.019-6.157c-0.809-2.577-1.646-5.241,0.266-7.152
					c1.909-1.911,4.574-1.073,7.15-0.263c2.402,0.754,4.67,1.467,6.157-0.021c1.488-1.487,0.775-3.755,0.019-6.157
					c-0.809-2.576-1.646-5.24,0.266-7.151c1.909-1.911,4.574-1.074,7.15-0.264c2.402,0.755,4.67,1.468,6.158-0.02
					c1.487-1.487,0.774-3.755,0.02-6.157c-0.809-2.578-1.646-5.242,0.264-7.152c1.911-1.912,4.575-1.074,7.152-0.264
					c2.402,0.754,4.67,1.467,6.157-0.02c1.487-1.488,0.774-3.756,0.021-6.158c-0.81-2.577-1.646-5.241,0.265-7.152
					c1.911-1.912,4.575-1.074,7.152-0.265c2.4,0.755,4.67,1.468,6.157-0.021c1.488-1.488,0.775-3.756,0.021-6.157
					c-0.81-2.577-1.646-5.242,0.265-7.152c1.912-1.912,4.576-1.075,7.152-0.266c2.402,0.754,4.67,1.467,6.159-0.021
					s0.774-3.757,0.021-6.158c-0.809-2.578-1.646-5.241,0.266-7.153l0.699,0.698c-1.489,1.487-0.776,3.757-0.022,6.158
					C695.961,307.875,696.798,310.539,694.887,312.45z"/>
			</g>
			<g>
				<path d="M161.698,702.731c1.912-1.911,4.576-1.074,7.152-0.266c2.402,0.756,4.671,1.468,6.158-0.02
					c1.488-1.488,0.776-3.758,0.021-6.158c-0.81-2.577-1.646-5.242,0.265-7.152c1.911-1.911,4.577-1.074,7.152-0.265
					c2.402,0.755,4.67,1.467,6.158-0.021c1.488-1.488,0.774-3.756,0.02-6.158c-0.809-2.576-1.646-5.241,0.266-7.152
					c1.91-1.91,4.574-1.073,7.15-0.264c2.402,0.756,4.672,1.468,6.159-0.02s0.773-3.756,0.02-6.158
					c-0.809-2.576-1.646-5.241,0.264-7.151c1.911-1.911,4.575-1.073,7.151-0.265c2.401,0.756,4.67,1.469,6.157-0.02
					c1.487-1.487,0.774-3.755,0.021-6.157c-0.81-2.575-1.647-5.241,0.264-7.151c1.909-1.91,4.574-1.072,7.15-0.264
					c2.402,0.756,4.67,1.469,6.157-0.02c1.487-1.487,0.776-3.756,0.021-6.157c-0.81-2.577-1.647-5.241,0.264-7.151
					c1.909-1.91,4.574-1.073,7.15-0.264c2.402,0.756,4.67,1.469,6.157-0.018l0.698,0.697c-1.91,1.91-4.574,1.073-7.15,0.264
					c-2.402-0.756-4.67-1.469-6.157,0.02c-1.487,1.486-0.774,3.755-0.019,6.156c0.809,2.577,1.646,5.24-0.266,7.152
					c-1.909,1.91-4.574,1.072-7.15,0.263c-2.402-0.755-4.67-1.468-6.157,0.021c-1.488,1.486-0.775,3.756-0.019,6.157
					c0.809,2.576,1.646,5.24-0.266,7.151c-1.909,1.91-4.574,1.073-7.15,0.264c-2.402-0.755-4.67-1.468-6.158,0.02
					c-1.487,1.487-0.774,3.756-0.02,6.156c0.809,2.578,1.646,5.242-0.264,7.152c-1.911,1.912-4.575,1.074-7.152,0.265
					c-2.402-0.754-4.67-1.467-6.157,0.021s-0.774,3.756-0.021,6.157c0.81,2.577,1.646,5.241-0.265,7.152s-4.575,1.074-7.152,0.265
					c-2.4-0.755-4.67-1.468-6.157,0.021c-1.488,1.488-0.775,3.756-0.021,6.157c0.81,2.576,1.646,5.242-0.265,7.152
					c-1.912,1.912-4.576,1.075-7.152,0.266c-2.402-0.754-4.67-1.467-6.159,0.021s-0.774,3.756-0.021,6.158
					c0.809,2.577,1.646,5.24-0.266,7.152l-0.699-0.698c1.489-1.487,0.776-3.757,0.022-6.158
					C160.624,707.308,159.787,704.643,161.698,702.731z"/>
			</g>
			<g>
				<defs>
					<path id="SVGID_1_" d="M481.003,351.787c-8.834,8.184-16.602,6.587-20.368,4.89c-4.77-2.15-6.065-3.604-9.323-6.639
						c-0.074-0.077-0.146-0.157-0.223-0.233c-8.81-8.811-23.095-8.811-31.905,0l-27.917,27.917c-8.81,8.81-23.094,8.81-31.904-0.001
						s-8.811-23.095-0.001-31.904l91.729-91.728c8.426-8.426,8.786-21.859,1.093-30.721l0.089-0.002
						c-3.989-4.431-5.532-5.361-7.977-10.783c-1.698-3.767-3.295-11.534,4.889-20.369l33.811-33.839
						c8.81-8.81,8.812-23.095,0-31.905c-8.811-8.811-23.096-8.81-31.905,0l-22.009,22.008c-8.834,8.185-16.602,6.588-20.368,4.89
						c-4.224-1.903-5.726-3.266-8.275-5.658c-0.38-0.442-0.773-0.879-1.192-1.299c-8.811-8.811-23.096-8.81-31.905,0L72.217,441.53
						c-8.81,8.811-8.81,23.095,0,31.905c8.81,8.81,23.094,8.81,31.904-0.001l25.937-25.937c8.81-8.81,23.095-8.811,31.905,0
						c8.81,8.811,8.81,23.096,0,31.905l-53.854,53.854c-8.81,8.811-8.81,23.095,0,31.905c8.81,8.81,23.094,8.81,31.904,0
						l47.857-47.857c8.811-8.811,23.095-8.811,31.906,0c8.81,8.81,8.811,23.095,0,31.905L108.11,660.878
						c-8.81,8.81-8.81,23.094,0,31.904c8.81,8.811,23.094,8.811,31.904,0l91.727-91.727c8.811-8.811,23.095-8.811,31.906,0
						c8.81,8.81,8.81,23.095,0,31.905l3.545-3.545c-8.811,8.81-8.811,23.094,0,31.904s23.095,8.811,31.905,0l6.439-6.439
						c8.81-8.81,23.095-8.81,31.905,0.001c8.81,8.81,8.811,23.095,0,31.905l1.98-1.98c-8.81,8.81-8.811,23.094-0.001,31.904
						c8.811,8.81,23.096,8.811,31.906,0l295.121-295.122c8.811-8.81,8.811-23.094,0-31.904c-8.811-8.811-23.094-8.811-31.904,0
						l-7.977,7.977c-8.811,8.81-23.094,8.81-31.904,0c-8.811-8.811-8.811-23.095,0-31.905l52.289-52.29
						c8.809-8.81,8.809-23.094-0.002-31.905s-23.094-8.81-31.904,0l-2.557,2.558c-7.885,6.002-14.668,4.54-18.109,2.988
						c-4.566-2.058-5.953-3.484-8.922-6.262c-0.25-0.278-0.512-0.553-0.779-0.821c-8.811-8.811-23.096-8.81-31.906,0
						L481.003,351.787z"/>
				</defs>
				<use xlink:href="#SVGID_1_"  overflow="visible"/>
				<clipPath id="SVGID_2_">
					<use xlink:href="#SVGID_1_"  overflow="visible"/>
				</clipPath>
				<g clip-path="url(#SVGID_2_)">
					<g>
						<defs>
							
								<rect id="SVGID_3_" x="-88.534" y="250.606" transform="matrix(0.7071 -0.7071 0.7071 0.7071 -172.183 319.5753)" width="776.41" height="234.051"/>
						</defs>
						<use xlink:href="#SVGID_3_"  overflow="visible"/>
						<clipPath id="SVGID_4_">
							<use xlink:href="#SVGID_3_"  overflow="visible"/>
						</clipPath>
						<g clip-path="url(#SVGID_4_)">
							<polygon points="61.821,755.931 54.202,755.945 55.739,-10.639 63.357,-10.652 							"/>
							<polygon points="78.222,755.898 70.603,755.912 72.139,-10.671 79.758,-10.686 							"/>
							<polygon points="94.623,755.864 87.004,755.881 88.541,-10.703 96.16,-10.719 							"/>
							<polygon points="111.024,755.831 103.405,755.848 104.942,-10.736 112.561,-10.751 							"/>
							<polygon points="127.426,755.8 119.806,755.813 121.342,-10.769 128.962,-10.784 							"/>
							<polygon points="143.827,755.767 136.208,755.782 137.744,-10.802 145.364,-10.818 							"/>
							<polygon points="160.229,755.733 152.609,755.749 154.146,-10.835 161.766,-10.85 							"/>
							<polygon points="176.629,755.701 169.011,755.716 170.547,-10.867 178.166,-10.883 							"/>
							<polygon points="193.03,755.667 185.412,755.683 186.949,-10.901 194.567,-10.917 							"/>
							<polygon points="209.432,755.636 201.813,755.65 203.349,-10.934 210.969,-10.949 							"/>
							<polygon points="225.834,755.602 218.213,755.617 219.75,-10.966 227.37,-10.981 							"/>
							<polygon points="242.235,755.569 234.616,755.585 236.151,-10.999 243.771,-11.014 							"/>
							<polygon points="258.637,755.536 251.017,755.55 252.554,-11.032 260.173,-11.047 							"/>
							<polygon points="275.038,755.504 267.417,755.52 268.954,-11.065 276.574,-11.08 							"/>
							<polygon points="291.439,755.47 283.819,755.486 285.355,-11.097 292.976,-11.113 							"/>
							<polygon points="307.84,755.438 300.221,755.453 301.758,-11.131 309.376,-11.146 							"/>
							<polygon points="324.241,755.405 316.622,755.42 318.158,-11.164 325.777,-11.179 							"/>
							<polygon points="340.642,755.37 333.022,755.387 334.56,-11.197 342.179,-11.211 							"/>
							<polygon points="357.044,755.34 349.425,755.354 350.961,-11.229 358.58,-11.245 							"/>
							<polygon points="373.444,755.306 365.825,755.321 367.36,-11.262 374.98,-11.277 							"/>
							<polygon points="389.846,755.274 382.227,755.289 383.763,-11.294 391.383,-11.311 							"/>
							<polygon points="406.247,755.24 398.629,755.257 400.164,-11.328 407.783,-11.344 							"/>
							<polygon points="422.648,755.209 415.029,755.223 416.565,-11.362 424.185,-11.375 							"/>
							<polygon points="439.049,755.175 431.431,755.19 432.966,-11.393 440.587,-11.409 							"/>
							<polygon points="455.451,755.143 447.833,755.157 449.369,-11.427 456.986,-11.442 							"/>
							<polygon points="471.853,755.108 464.233,755.124 465.77,-11.459 473.389,-11.474 							"/>
							<polygon points="488.255,755.076 480.635,755.091 482.171,-11.492 489.79,-11.507 							"/>
							<polygon points="504.655,755.044 497.036,755.059 498.571,-11.524 506.192,-11.541 							"/>
							<polygon points="521.056,755.011 513.437,755.026 514.972,-11.558 522.593,-11.573 							"/>
						</g>
					</g>
				</g>
				
					<rect x="208.443" y="490.234" transform="matrix(0.7071 -0.7071 0.7071 0.7071 -236.4712 502.9499)" clip-path="url(#SVGID_2_)" width="560.874" height="93.375"/>
				<g clip-path="url(#SVGID_2_)">
					<g>
						<circle cx="687.704" cy="391.808" r="4.193"/>
						<circle cx="679.798" cy="399.714" r="4.193"/>
						<circle cx="671.89" cy="407.623" r="4.194"/>
						<circle cx="663.983" cy="415.527" r="4.194"/>
						<circle cx="656.076" cy="423.435" r="4.195"/>
						<circle cx="648.169" cy="431.342" r="4.195"/>
						<circle cx="640.262" cy="439.25" r="4.192"/>
						<circle cx="632.354" cy="447.157" r="4.193"/>
						<path d="M621.481,458.028c-1.637-1.638-1.635-4.292,0-5.931c1.641-1.636,4.295-1.636,5.932,0c1.637,1.639,1.637,4.293,0,5.931
							C625.776,459.668,623.118,459.667,621.481,458.028z"/>
						<circle cx="616.541" cy="462.971" r="4.194"/>
						<circle cx="608.633" cy="470.878" r="4.194"/>
						<circle cx="600.727" cy="478.786" r="4.194"/>
						<circle cx="592.819" cy="486.692" r="4.193"/>
						<path d="M581.948,497.565c-1.639-1.641-1.639-4.292,0-5.93c1.637-1.642,4.293-1.64,5.93,0c1.637,1.636,1.639,4.289,0,5.93
							C586.239,499.202,583.585,499.202,581.948,497.565z"/>
						<circle cx="577.005" cy="502.506" r="4.194"/>
						<path d="M566.132,513.378c-1.637-1.636-1.635-4.291,0.002-5.93c1.637-1.637,4.293-1.637,5.93,0s1.639,4.293,0.002,5.928
							C570.427,515.017,567.771,515.017,566.132,513.378z"/>
						<circle cx="561.19" cy="518.32" r="4.193"/>
						<circle cx="553.284" cy="526.228" r="4.194"/>
						<circle cx="545.378" cy="534.135" r="4.193"/>
						<circle cx="537.47" cy="542.041" r="4.195"/>
						<circle cx="529.564" cy="549.948" r="4.194"/>
						<circle cx="521.655" cy="557.854" r="4.193"/>
						<circle cx="513.749" cy="565.762" r="4.194"/>
						<circle cx="505.842" cy="573.67" r="4.194"/>
						<path d="M494.97,584.542c-1.637-1.638-1.639-4.293,0-5.93c1.637-1.64,4.293-1.638,5.932,0c1.637,1.638,1.635,4.292,0,5.93
							C499.261,586.18,496.606,586.182,494.97,584.542z"/>
						<circle cx="490.028" cy="589.484" r="4.194"/>
						<path d="M479.154,600.356c-1.639-1.638-1.639-4.293,0.001-5.933c1.638-1.635,4.295-1.636,5.931,0.001
							c1.638,1.637,1.637,4.293-0.002,5.934C483.447,601.993,480.792,601.993,479.154,600.356z"/>
						<circle cx="474.213" cy="605.296" r="4.192"/>
						<circle cx="466.307" cy="613.206" r="4.193"/>
						<path d="M455.435,624.077c-1.639-1.639-1.639-4.291,0.002-5.932c1.634-1.637,4.288-1.637,5.926,0
							c1.639,1.639,1.64,4.292,0.003,5.932C459.728,625.715,457.07,625.715,455.435,624.077z"/>
						<circle cx="450.492" cy="629.02" r="4.192"/>
						<circle cx="442.585" cy="636.926" r="4.193"/>
						<path d="M431.714,647.798c-1.637-1.637-1.638-4.292-0.002-5.93c1.639-1.637,4.294-1.637,5.932-0.001
							c1.636,1.639,1.636,4.293-0.002,5.931C436.005,649.438,433.35,649.437,431.714,647.798z"/>
						<path d="M423.807,655.706c-1.638-1.637-1.637-4.292-0.002-5.932c1.64-1.637,4.295-1.636,5.931,0
							c1.638,1.638,1.638,4.292,0.001,5.933C428.099,657.341,425.443,657.343,423.807,655.706z"/>
						<circle cx="418.864" cy="660.646" r="4.193"/>
						<path d="M407.989,671.519c-1.635-1.635-1.634-4.294,0.002-5.93c1.638-1.639,4.292-1.639,5.932,0.001
							c1.637,1.637,1.637,4.293-0.001,5.928C412.282,673.158,409.628,673.157,407.989,671.519z"/>
						<path d="M400.087,679.426c-1.64-1.64-1.642-4.292-0.001-5.928c1.636-1.641,4.294-1.64,5.93-0.001
							c1.637,1.637,1.636,4.29-0.002,5.929C404.376,681.063,401.721,681.064,400.087,679.426z"/>
						<path d="M392.177,687.335c-1.638-1.641-1.637-4.295,0-5.93c1.637-1.64,4.293-1.639,5.931-0.002s1.639,4.291-0.001,5.931
							C396.47,688.97,393.813,688.972,392.177,687.335z"/>
						<path d="M384.271,695.24c-1.639-1.636-1.638-4.292-0.001-5.932c1.64-1.636,4.293-1.634,5.93,0.002
							c1.638,1.638,1.637,4.292,0.001,5.929C388.563,696.877,385.91,696.878,384.271,695.24z"/>
						<circle cx="379.329" cy="700.181" r="4.192"/>
						<path d="M368.457,711.056c-1.637-1.638-1.637-4.294,0.001-5.93c1.638-1.639,4.29-1.64,5.929-0.002
							c1.638,1.638,1.638,4.292,0.001,5.932C372.748,712.69,370.094,712.691,368.457,711.056z"/>
						<circle cx="363.515" cy="715.997" r="4.194"/>
						<circle cx="355.607" cy="723.903" r="4.193"/>
						<path d="M344.736,734.775c-1.639-1.636-1.64-4.292,0.001-5.929c1.635-1.639,4.289-1.64,5.93-0.001
							c1.637,1.637,1.637,4.293-0.003,5.93C349.026,736.413,346.372,736.414,344.736,734.775z"/>
					</g>
					<g>
						<circle cx="679.798" cy="383.9" r="4.193"/>
						<path d="M668.925,394.773c-1.639-1.637-1.639-4.293-0.002-5.931c1.639-1.638,4.295-1.637,5.932,0.001
							c1.639,1.638,1.639,4.292,0.002,5.929C673.216,396.41,670.563,396.41,668.925,394.773z"/>
						<circle cx="663.983" cy="399.714" r="4.193"/>
						<circle cx="656.075" cy="407.621" r="4.194"/>
						<path d="M645.202,418.493c-1.637-1.637-1.637-4.293,0-5.931c1.639-1.638,4.295-1.638,5.932-0.001
							c1.637,1.641,1.637,4.294-0.002,5.932C649.495,420.132,646.841,420.132,645.202,418.493z"/>
						<circle cx="640.262" cy="423.435" r="4.194"/>
						<circle cx="632.354" cy="431.343" r="4.192"/>
						<circle cx="624.447" cy="439.25" r="4.194"/>
						<circle cx="616.54" cy="447.157" r="4.193"/>
						<circle cx="608.633" cy="455.063" r="4.194"/>
						<circle cx="600.727" cy="462.971" r="4.194"/>
						<circle cx="592.818" cy="470.878" r="4.195"/>
						<circle cx="584.913" cy="478.785" r="4.193"/>
						<path d="M574.04,489.655c-1.639-1.635-1.639-4.291,0-5.93s4.293-1.638,5.93,0.002c1.639,1.637,1.639,4.292,0,5.928
							C578.331,491.296,575.677,491.296,574.04,489.655z"/>
						<path d="M566.132,497.564c-1.637-1.638-1.637-4.293,0-5.931c1.639-1.639,4.295-1.637,5.934,0.002
							c1.635,1.636,1.635,4.29-0.004,5.93C570.427,499.203,567.771,499.201,566.132,497.564z"/>
						<path d="M558.226,505.472c-1.637-1.638-1.639-4.294,0.002-5.934c1.637-1.637,4.291-1.634,5.928,0.001
							c1.639,1.64,1.639,4.293,0.002,5.932C562.519,507.108,559.864,507.108,558.226,505.472z"/>
						<path d="M550.317,513.376c-1.637-1.635-1.637-4.291,0-5.928c1.639-1.639,4.293-1.637,5.932-0.001
							c1.639,1.637,1.637,4.294,0,5.93C554.61,515.017,551.956,515.017,550.317,513.376z"/>
						<path d="M542.411,521.285c-1.637-1.636-1.637-4.294,0.002-5.929c1.637-1.642,4.291-1.64,5.93-0.001
							c1.637,1.635,1.637,4.293,0,5.932C546.704,522.923,544.05,522.923,542.411,521.285z"/>
						<circle cx="537.47" cy="526.228" r="4.193"/>
						<circle cx="529.563" cy="534.133" r="4.193"/>
						<circle cx="521.655" cy="542.041" r="4.193"/>
						<circle cx="513.749" cy="549.948" r="4.193"/>
						<path d="M502.876,560.819c-1.635-1.638-1.637-4.293,0-5.931c1.637-1.637,4.295-1.637,5.932,0c1.637,1.638,1.639,4.293,0,5.931
							C507.169,562.456,504.515,562.459,502.876,560.819z"/>
						<circle cx="497.936" cy="565.762" r="4.194"/>
						<circle cx="490.027" cy="573.669" r="4.193"/>
						<path d="M479.154,584.542c-1.639-1.638-1.639-4.293,0.002-5.929c1.637-1.642,4.292-1.64,5.929-0.002
							c1.638,1.638,1.638,4.293,0,5.931C483.447,586.179,480.792,586.179,479.154,584.542z"/>
						<path d="M471.246,592.449c-1.635-1.637-1.634-4.292-0.001-5.93c1.642-1.638,4.298-1.639,5.934-0.002
							c1.638,1.637,1.637,4.294-0.003,5.933C475.539,594.086,472.885,594.086,471.246,592.449z"/>
						<circle cx="466.307" cy="597.39" r="4.193"/>
						<path d="M455.435,608.263c-1.639-1.637-1.64-4.293,0.001-5.93c1.635-1.639,4.291-1.638,5.927-0.002
							c1.64,1.639,1.64,4.294,0.002,5.932C459.728,609.899,457.07,609.901,455.435,608.263z"/>
						<path d="M447.526,616.169c-1.638-1.634-1.638-4.293-0.001-5.93c1.642-1.637,4.293-1.637,5.931,0.001
							c1.64,1.639,1.64,4.291,0,5.93C451.818,617.809,449.166,617.809,447.526,616.169z"/>
						<circle cx="442.584" cy="621.111" r="4.194"/>
						<circle cx="434.678" cy="629.018" r="4.193"/>
						<path d="M423.807,639.89c-1.637-1.636-1.641-4.291,0-5.927c1.637-1.642,4.293-1.641,5.929-0.002
							c1.639,1.636,1.638,4.293,0,5.931C428.099,641.528,425.443,641.527,423.807,639.89z"/>
						<circle cx="418.863" cy="644.833" r="4.193"/>
						<circle cx="410.956" cy="652.74" r="4.194"/>
						<path d="M400.085,663.611c-1.64-1.637-1.639-4.289,0.002-5.929c1.634-1.639,4.29-1.639,5.927-0.002
							c1.638,1.639,1.638,4.293,0,5.931C404.377,665.248,401.72,665.251,400.085,663.611z"/>
						<path d="M392.178,671.518c-1.638-1.634-1.638-4.293-0.001-5.929c1.638-1.639,4.293-1.638,5.93,0
							c1.64,1.636,1.641,4.294,0,5.93C396.47,673.157,393.813,673.157,392.178,671.518z"/>
						<path d="M384.27,679.428c-1.637-1.641-1.635-4.293,0.001-5.93c1.64-1.64,4.293-1.64,5.93-0.002s1.637,4.292-0.001,5.932
							C388.563,681.063,385.91,681.064,384.27,679.428z"/>
						<circle cx="379.328" cy="684.369" r="4.194"/>
						<circle cx="371.421" cy="692.275" r="4.192"/>
						<circle cx="363.515" cy="700.181" r="4.194"/>
						<circle cx="355.607" cy="708.09" r="4.195"/>
						<circle cx="347.701" cy="715.997" r="4.194"/>
						<circle cx="339.793" cy="723.902" r="4.194"/>
					</g>
					<g>
						<path d="M668.925,378.958c-1.637-1.638-1.639-4.291,0-5.928c1.639-1.641,4.293-1.641,5.93-0.003
							c1.639,1.638,1.639,4.294,0,5.932C673.218,380.597,670.562,380.595,668.925,378.958z"/>
						<path d="M661.019,386.865c-1.639-1.635-1.637-4.291,0.002-5.93c1.637-1.637,4.291-1.637,5.926,0.002
							c1.639,1.636,1.641,4.291,0.004,5.928C665.312,388.503,662.653,388.503,661.019,386.865z"/>
						<circle cx="656.076" cy="391.808" r="4.194"/>
						<circle cx="648.169" cy="399.714" r="4.194"/>
						<circle cx="640.263" cy="407.62" r="4.193"/>
						<circle cx="632.354" cy="415.528" r="4.193"/>
						<path d="M621.481,426.401c-1.637-1.637-1.635-4.293,0-5.93c1.639-1.639,4.293-1.639,5.932-0.002
							c1.635,1.639,1.637,4.295,0,5.931C625.776,428.038,623.118,428.038,621.481,426.401z"/>
						<path d="M613.575,434.308c-1.639-1.637-1.637-4.293,0-5.929c1.639-1.641,4.293-1.641,5.93-0.001
							c1.639,1.638,1.639,4.293,0.002,5.93C617.868,435.945,615.212,435.944,613.575,434.308z"/>
						<circle cx="608.632" cy="439.25" r="4.193"/>
						<circle cx="600.727" cy="447.157" r="4.194"/>
						<circle cx="592.819" cy="455.063" r="4.193"/>
						<circle cx="584.913" cy="462.97" r="4.193"/>
						<circle cx="577.005" cy="470.879" r="4.194"/>
						<path d="M566.132,481.75c-1.637-1.637-1.637-4.291,0.002-5.93c1.637-1.637,4.293-1.637,5.93,0.001
							c1.639,1.635,1.637,4.292,0,5.929C570.427,483.388,567.769,483.388,566.132,481.75z"/>
						<circle cx="561.191" cy="486.692" r="4.194"/>
						<path d="M550.317,497.565c-1.637-1.64-1.635-4.293,0.002-5.93c1.637-1.641,4.293-1.64,5.93-0.001
							c1.639,1.637,1.639,4.292,0,5.93C554.612,499.202,551.956,499.201,550.317,497.565z"/>
						<circle cx="545.378" cy="502.506" r="4.194"/>
						<circle cx="537.471" cy="510.413" r="4.194"/>
						<path d="M526.599,521.284c-1.637-1.636-1.637-4.29,0-5.928c1.639-1.64,4.291-1.64,5.93,0c1.639,1.634,1.637,4.293,0,5.929
							C530.892,522.923,528.235,522.923,526.599,521.284z"/>
						<circle cx="521.656" cy="526.227" r="4.194"/>
						<circle cx="513.748" cy="534.135" r="4.192"/>
						<circle cx="505.842" cy="542.041" r="4.194"/>
						<circle cx="497.936" cy="549.948" r="4.194"/>
						<circle cx="490.027" cy="557.855" r="4.192"/>
						<circle cx="482.12" cy="565.762" r="4.193"/>
						<circle cx="474.213" cy="573.669" r="4.194"/>
						<circle cx="466.308" cy="581.577" r="4.194"/>
						<path d="M455.437,592.448c-1.641-1.637-1.641-4.291-0.001-5.93c1.636-1.637,4.292-1.637,5.928,0
							c1.638,1.637,1.639,4.293,0.002,5.93C459.728,594.086,457.07,594.086,455.437,592.448z"/>
						<circle cx="450.491" cy="597.391" r="4.193"/>
						<circle cx="442.584" cy="605.298" r="4.193"/>
						<circle cx="434.677" cy="613.206" r="4.193"/>
						<circle cx="426.771" cy="621.111" r="4.194"/>
						<circle cx="418.865" cy="629.019" r="4.193"/>
						<circle cx="410.957" cy="636.926" r="4.193"/>
						<circle cx="403.05" cy="644.833" r="4.192"/>
						<circle cx="395.143" cy="652.739" r="4.193"/>
						<path d="M384.271,663.61c-1.638-1.637-1.639-4.289-0.001-5.928c1.64-1.638,4.292-1.638,5.93-0.001
							c1.637,1.64,1.638,4.292,0,5.931S385.91,665.25,384.271,663.61z"/>
						<circle cx="379.328" cy="668.554" r="4.193"/>
						<path d="M368.457,679.428c-1.637-1.641-1.637-4.294,0.001-5.932c1.638-1.639,4.292-1.639,5.929,0.002
							c1.637,1.636,1.638,4.289,0.001,5.928C372.748,681.064,370.095,681.063,368.457,679.428z"/>
						<circle cx="363.516" cy="684.369" r="4.192"/>
						<circle cx="355.607" cy="692.275" r="4.194"/>
						<circle cx="347.701" cy="700.182" r="4.193"/>
						<circle cx="339.793" cy="708.09" r="4.194"/>
						<circle cx="331.886" cy="715.997" r="4.194"/>
					</g>
					<g>
						<circle cx="663.983" cy="368.087" r="4.193"/>
						<circle cx="656.076" cy="375.995" r="4.194"/>
						<path d="M645.202,386.867c-1.637-1.637-1.637-4.293,0-5.931c1.639-1.638,4.295-1.638,5.934,0
							c1.635,1.637,1.635,4.292-0.002,5.931C649.497,388.503,646.841,388.503,645.202,386.867z"/>
						<path d="M637.296,394.774c-1.637-1.638-1.639-4.292,0.002-5.932c1.635-1.636,4.291-1.638,5.93,0.001
							c1.637,1.637,1.637,4.293,0,5.93C641.589,396.41,638.933,396.41,637.296,394.774z"/>
						<circle cx="632.354" cy="399.715" r="4.193"/>
						<circle cx="624.447" cy="407.621" r="4.194"/>
						<path d="M613.575,418.493c-1.637-1.638-1.637-4.291,0-5.932c1.637-1.635,4.293-1.635,5.932,0.002
							c1.637,1.639,1.637,4.292,0,5.93C617.868,420.132,615.214,420.132,613.575,418.493z"/>
						<circle cx="608.632" cy="423.436" r="4.194"/>
						<circle cx="600.728" cy="431.343" r="4.193"/>
						<circle cx="592.819" cy="439.25" r="4.193"/>
						<circle cx="584.913" cy="447.158" r="4.193"/>
						<circle cx="577.005" cy="455.063" r="4.193"/>
						<circle cx="569.099" cy="462.97" r="4.194"/>
						<circle cx="561.191" cy="470.879" r="4.194"/>
						<circle cx="553.284" cy="478.785" r="4.193"/>
						<circle cx="545.378" cy="486.692" r="4.193"/>
						<circle cx="537.47" cy="494.601" r="4.193"/>
						<path d="M526.599,505.472c-1.639-1.638-1.637-4.293-0.002-5.933c1.639-1.635,4.295-1.638,5.934,0.001
							c1.637,1.639,1.637,4.294-0.002,5.932C530.892,507.108,528.235,507.108,526.599,505.472z"/>
						<circle cx="521.656" cy="510.414" r="4.193"/>
						<path d="M510.784,521.285c-1.637-1.639-1.639-4.291,0-5.929c1.635-1.64,4.293-1.64,5.93,0.001
							c1.637,1.634,1.637,4.292,0,5.929C515.075,522.924,512.421,522.923,510.784,521.285z"/>
						<circle cx="505.843" cy="526.229" r="4.193"/>
						<circle cx="497.936" cy="534.135" r="4.194"/>
						<path d="M487.063,545.007c-1.638-1.639-1.639-4.293-0.001-5.932c1.637-1.636,4.294-1.637,5.931,0.003
							c1.637,1.634,1.637,4.29,0,5.928C491.354,546.644,488.699,546.643,487.063,545.007z"/>
						<circle cx="482.121" cy="549.948" r="4.193"/>
						<path d="M471.247,560.819c-1.636-1.637-1.636-4.293,0.002-5.931c1.637-1.637,4.292-1.636,5.93,0.002
							c1.637,1.637,1.638,4.292,0,5.928C475.541,562.459,472.886,562.458,471.247,560.819z"/>
						<circle cx="466.307" cy="565.764" r="4.194"/>
						<path d="M455.435,576.637c-1.639-1.638-1.639-4.294,0.002-5.932c1.634-1.637,4.291-1.64,5.928-0.002
							c1.638,1.637,1.638,4.295-0.003,5.933C459.726,578.273,457.07,578.273,455.435,576.637z"/>
						<path d="M447.527,584.543c-1.638-1.639-1.639-4.294-0.001-5.931c1.64-1.641,4.293-1.639,5.931,0.001
							c1.638,1.636,1.639,4.291-0.001,5.929C451.818,586.179,449.166,586.179,447.527,584.543z"/>
						<circle cx="442.585" cy="589.485" r="4.194"/>
						<circle cx="434.678" cy="597.391" r="4.193"/>
						<circle cx="426.771" cy="605.297" r="4.194"/>
						<circle cx="418.865" cy="613.205" r="4.193"/>
						<path d="M407.991,624.077c-1.637-1.639-1.638-4.292-0.002-5.932c1.642-1.638,4.296-1.638,5.935,0.001
							c1.636,1.639,1.636,4.291-0.002,5.932C412.283,625.716,409.631,625.714,407.991,624.077z"/>
						<circle cx="403.05" cy="629.02" r="4.193"/>
						<circle cx="395.143" cy="636.927" r="4.192"/>
						<path d="M384.27,647.799c-1.637-1.638-1.636-4.294,0.001-5.931c1.64-1.637,4.293-1.638,5.931,0
							c1.637,1.637,1.637,4.293,0,5.93C388.563,649.438,385.911,649.438,384.27,647.799z"/>
						<path d="M376.364,655.708c-1.637-1.642-1.638-4.296-0.001-5.933c1.638-1.638,4.293-1.638,5.93,0
							c1.638,1.637,1.639,4.292,0.001,5.931C380.657,657.342,378.002,657.341,376.364,655.708z"/>
						<circle cx="371.422" cy="660.647" r="4.193"/>
						<circle cx="363.516" cy="668.554" r="4.193"/>
						<path d="M352.642,679.428c-1.636-1.641-1.635-4.294,0-5.931c1.64-1.64,4.293-1.639,5.932,0.001
							c1.637,1.636,1.638,4.288,0,5.93C356.934,681.063,354.281,681.063,352.642,679.428z"/>
						<path d="M344.737,687.334c-1.64-1.639-1.64-4.293,0.001-5.931c1.634-1.637,4.289-1.637,5.928,0.001
							c1.636,1.636,1.637,4.29,0,5.929C349.027,688.97,346.371,688.97,344.737,687.334z"/>
						<circle cx="339.793" cy="692.275" r="4.193"/>
						<circle cx="331.886" cy="700.182" r="4.193"/>
						<path d="M321.015,711.057c-1.637-1.64-1.638-4.296,0-5.933c1.637-1.638,4.293-1.638,5.93,0.001
							c1.638,1.636,1.637,4.292,0,5.931C325.308,712.691,322.652,712.691,321.015,711.057z"/>
					</g>
					<g>
						<path d="M653.112,363.144c-1.639-1.639-1.639-4.292-0.004-5.932c1.641-1.636,4.295-1.637,5.934,0.002
							c1.637,1.638,1.637,4.291-0.002,5.93C657.403,364.783,654.749,364.783,653.112,363.144z"/>
						<circle cx="648.169" cy="368.087" r="4.193"/>
						<path d="M637.298,378.959c-1.641-1.638-1.639-4.292,0-5.931c1.635-1.64,4.291-1.639,5.93,0s1.637,4.292-0.002,5.931
							C641.589,380.597,638.935,380.599,637.298,378.959z"/>
						<circle cx="632.354" cy="383.902" r="4.193"/>
						<path d="M621.483,394.774c-1.639-1.639-1.639-4.292-0.002-5.933c1.639-1.635,4.293-1.637,5.932,0.002
							c1.639,1.638,1.637,4.292,0,5.93C625.776,396.41,623.122,396.41,621.483,394.774z"/>
						<circle cx="616.541" cy="399.715" r="4.194"/>
						<circle cx="608.634" cy="407.623" r="4.194"/>
						<path d="M597.763,418.494c-1.639-1.64-1.639-4.291-0.002-5.933c1.639-1.635,4.293-1.636,5.932,0.002
							c1.637,1.639,1.639,4.291,0,5.93C602.054,420.13,599.399,420.132,597.763,418.494z"/>
						<circle cx="592.819" cy="423.437" r="4.193"/>
						<path d="M581.948,434.308c-1.639-1.638-1.639-4.292,0-5.93c1.635-1.641,4.293-1.64,5.93,0c1.639,1.638,1.639,4.291,0,5.93
							C586.241,435.944,583.585,435.946,581.948,434.308z"/>
						<circle cx="577.005" cy="439.25" r="4.193"/>
						<circle cx="569.098" cy="447.158" r="4.194"/>
						<circle cx="561.192" cy="455.064" r="4.193"/>
						<path d="M550.317,465.938c-1.637-1.64-1.637-4.297,0.002-5.932c1.635-1.64,4.293-1.64,5.932-0.002
							c1.637,1.64,1.635,4.294-0.002,5.93C554.612,467.573,551.956,467.574,550.317,465.938z"/>
						<circle cx="545.378" cy="470.878" r="4.193"/>
						<circle cx="537.47" cy="478.786" r="4.193"/>
						<circle cx="529.564" cy="486.692" r="4.194"/>
						<path d="M518.69,497.566c-1.639-1.64-1.637-4.294,0-5.931c1.637-1.642,4.293-1.641,5.932-0.001
							c1.639,1.637,1.637,4.292-0.002,5.931C522.983,499.201,520.329,499.202,518.69,497.566z"/>
						<path d="M510.784,505.472c-1.639-1.639-1.637-4.293-0.002-5.933c1.639-1.635,4.295-1.634,5.934,0.001
							c1.637,1.639,1.635,4.294-0.002,5.932C515.075,507.108,512.423,507.108,510.784,505.472z"/>
						<circle cx="505.843" cy="510.414" r="4.193"/>
						<path d="M494.97,521.286c-1.637-1.637-1.639-4.296,0-5.93c1.639-1.64,4.293-1.641,5.932,0c1.637,1.638,1.635,4.292,0,5.928
							C499.263,522.924,496.608,522.924,494.97,521.286z"/>
						<circle cx="490.028" cy="526.228" r="4.193"/>
						<path d="M479.156,537.1c-1.641-1.638-1.641-4.295,0-5.93c1.637-1.637,4.294-1.638,5.929,0.001
							c1.639,1.636,1.638,4.291,0.001,5.928C483.447,538.736,480.793,538.736,479.156,537.1z"/>
						<path d="M471.249,545.006c-1.636-1.637-1.637-4.292-0.004-5.931c1.642-1.636,4.297-1.635,5.934,0.002
							c1.638,1.638,1.637,4.292-0.001,5.93C475.541,546.644,472.887,546.644,471.249,545.006z"/>
						<path d="M463.342,552.913c-1.637-1.637-1.637-4.292,0.002-5.93c1.637-1.637,4.289-1.638,5.928,0
							c1.638,1.638,1.638,4.292,0.001,5.929C467.632,554.553,464.979,554.552,463.342,552.913z"/>
						<path d="M455.437,560.819c-1.641-1.637-1.642-4.293,0-5.93c1.633-1.638,4.292-1.636,5.929,0.001s1.637,4.291-0.003,5.929
							C459.725,562.459,457.072,562.459,455.437,560.819z"/>
						<path d="M447.526,568.729c-1.638-1.64-1.637-4.293,0-5.935c1.64-1.635,4.294-1.637,5.933,0.002
							c1.638,1.638,1.636,4.292-0.004,5.933C451.818,570.366,449.165,570.366,447.526,568.729z"/>
						<path d="M439.62,576.635c-1.637-1.636-1.639-4.296-0.001-5.933c1.639-1.634,4.294-1.633,5.931,0.004
							c1.638,1.637,1.638,4.291-0.001,5.929C443.912,578.272,441.257,578.273,439.62,576.635z"/>
						<path d="M431.713,584.542c-1.637-1.636-1.637-4.292,0.001-5.929c1.635-1.642,4.291-1.641,5.93-0.001
							c1.637,1.637,1.636,4.292-0.001,5.93C436.005,586.179,433.351,586.181,431.713,584.542z"/>
						<circle cx="426.771" cy="589.484" r="4.193"/>
						<circle cx="418.865" cy="597.392" r="4.194"/>
						<circle cx="410.957" cy="605.297" r="4.193"/>
						<path d="M400.086,616.17c-1.638-1.636-1.639-4.291,0-5.928c1.635-1.642,4.294-1.64,5.931-0.002
							c1.636,1.639,1.634,4.294-0.003,5.93C404.376,617.809,401.724,617.808,400.086,616.17z"/>
						<circle cx="395.143" cy="621.112" r="4.193"/>
						<path d="M384.271,631.984c-1.637-1.637-1.638-4.292-0.002-5.934c1.641-1.634,4.295-1.633,5.931,0.005
							c1.638,1.637,1.638,4.291,0,5.929C388.563,633.621,385.91,633.621,384.271,631.984z"/>
						<circle cx="379.329" cy="636.927" r="4.194"/>
						<circle cx="371.422" cy="644.833" r="4.193"/>
						<path d="M360.549,655.708c-1.635-1.64-1.635-4.296,0.003-5.933c1.636-1.637,4.292-1.637,5.929,0s1.637,4.292,0,5.933
							C364.843,657.342,362.188,657.342,360.549,655.708z"/>
						<path d="M352.642,663.613c-1.634-1.639-1.637-4.292,0-5.934c1.641-1.635,4.292-1.635,5.932,0.002
							c1.637,1.64,1.638,4.292,0,5.929C356.934,665.251,354.28,665.251,352.642,663.613z"/>
						<path d="M344.736,671.519c-1.639-1.635-1.64-4.294,0-5.928c1.634-1.64,4.291-1.64,5.93,0c1.638,1.637,1.636,4.292-0.002,5.928
							C349.027,673.157,346.375,673.156,344.736,671.519z"/>
						<path d="M336.828,679.428c-1.638-1.64-1.636-4.293,0.001-5.931c1.635-1.641,4.291-1.64,5.929,0
							c1.638,1.637,1.638,4.291,0,5.929S338.466,681.064,336.828,679.428z"/>
						<circle cx="331.886" cy="684.369" r="4.193"/>
						<circle cx="323.98" cy="692.275" r="4.193"/>
						<circle cx="316.073" cy="700.182" r="4.193"/>
					</g>
					<g>
						<path d="M645.204,355.24c-1.639-1.641-1.639-4.296-0.002-5.932c1.639-1.639,4.295-1.639,5.934,0
							c1.635,1.636,1.635,4.291-0.002,5.932C649.497,356.873,646.841,356.873,645.204,355.24z"/>
						<circle cx="640.263" cy="360.179" r="4.193"/>
						<circle cx="632.355" cy="368.088" r="4.194"/>
						<path d="M621.481,378.959c-1.637-1.637-1.639-4.292,0-5.931c1.637-1.639,4.293-1.639,5.932-0.002
							c1.637,1.641,1.635,4.295,0,5.932C625.776,380.597,623.118,380.597,621.481,378.959z"/>
						<circle cx="616.541" cy="383.901" r="4.194"/>
						<path d="M605.669,394.774c-1.637-1.638-1.639-4.294-0.002-5.932c1.637-1.637,4.295-1.637,5.934,0.001
							c1.635,1.637,1.637,4.292-0.002,5.93C609.962,396.41,607.306,396.41,605.669,394.774z"/>
						<circle cx="600.727" cy="399.715" r="4.193"/>
						<circle cx="592.819" cy="407.623" r="4.193"/>
						<path d="M581.948,418.495c-1.639-1.64-1.639-4.293-0.002-5.932c1.639-1.639,4.295-1.637,5.932-0.002
							c1.637,1.641,1.639,4.295,0,5.933C586.241,420.132,583.583,420.132,581.948,418.495z"/>
						<circle cx="577.005" cy="423.437" r="4.193"/>
						<path d="M566.132,434.308c-1.637-1.637-1.637-4.293,0-5.932c1.637-1.637,4.295-1.638,5.934,0.002
							c1.635,1.637,1.637,4.292-0.002,5.93C570.427,435.945,567.771,435.945,566.132,434.308z"/>
						<circle cx="561.192" cy="439.25" r="4.193"/>
						<circle cx="553.285" cy="447.158" r="4.194"/>
						<path d="M542.413,458.027c-1.637-1.636-1.641-4.291,0-5.93c1.637-1.637,4.293-1.636,5.93,0c1.637,1.639,1.637,4.294,0,5.93
							C546.704,459.668,544.05,459.667,542.413,458.027z"/>
						<path d="M534.505,465.938c-1.637-1.639-1.639-4.295-0.002-5.932c1.639-1.639,4.293-1.639,5.934,0.001
							c1.635,1.636,1.637,4.292-0.002,5.931C538.796,467.573,536.142,467.573,534.505,465.938z"/>
						<path d="M526.599,473.844c-1.639-1.64-1.639-4.293,0-5.932c1.637-1.638,4.293-1.636,5.932,0.001
							c1.635,1.638,1.637,4.292,0,5.931C530.892,475.481,528.235,475.481,526.599,473.844z"/>
						<circle cx="521.656" cy="478.785" r="4.194"/>
						<path d="M510.784,489.658c-1.637-1.638-1.639-4.294,0-5.931c1.637-1.64,4.293-1.641,5.932-0.001
							c1.635,1.638,1.635,4.293-0.002,5.931C515.075,491.296,512.421,491.296,510.784,489.658z"/>
						<path d="M502.878,497.564c-1.637-1.638-1.639-4.293-0.002-5.93c1.639-1.641,4.293-1.64,5.932,0.001
							c1.637,1.636,1.637,4.29,0,5.93C507.169,499.202,504.515,499.201,502.878,497.564z"/>
						<path d="M494.97,505.473c-1.639-1.638-1.639-4.294,0-5.934c1.637-1.635,4.295-1.635,5.932,0c1.635,1.64,1.637,4.295,0,5.933
							C499.261,507.109,496.608,507.108,494.97,505.473z"/>
						<circle cx="490.027" cy="510.414" r="4.193"/>
						<circle cx="482.121" cy="518.321" r="4.193"/>
						<circle cx="474.214" cy="526.228" r="4.193"/>
						<circle cx="466.307" cy="534.135" r="4.192"/>
						<circle cx="458.4" cy="542.042" r="4.193"/>
						<circle cx="450.491" cy="549.948" r="4.193"/>
						<circle cx="442.585" cy="557.854" r="4.194"/>
						<circle cx="434.678" cy="565.763" r="4.193"/>
						<path d="M423.807,576.636c-1.638-1.637-1.639-4.295-0.002-5.932c1.639-1.637,4.295-1.636,5.932,0.002
							c1.638,1.634,1.638,4.293,0,5.929C428.1,578.273,425.443,578.272,423.807,576.636z"/>
						<path d="M415.899,584.542c-1.637-1.637-1.638-4.293-0.001-5.93c1.639-1.641,4.294-1.639,5.931,0.001
							c1.637,1.636,1.638,4.291,0,5.93C420.192,586.179,417.536,586.179,415.899,584.542z"/>
						<path d="M407.991,592.448c-1.637-1.637-1.636-4.293-0.002-5.929c1.641-1.639,4.294-1.637,5.935-0.001
							c1.636,1.637,1.636,4.293-0.001,5.932C412.283,594.086,409.629,594.086,407.991,592.448z"/>
						<circle cx="403.051" cy="597.392" r="4.193"/>
						<circle cx="395.143" cy="605.296" r="4.194"/>
						<path d="M384.27,616.17c-1.636-1.636-1.637-4.293,0-5.929c1.641-1.641,4.294-1.639,5.932,0
							c1.636,1.636,1.637,4.293-0.001,5.929C388.564,617.809,385.91,617.805,384.27,616.17z"/>
						<circle cx="379.329" cy="621.111" r="4.193"/>
						<path d="M368.457,631.985c-1.638-1.637-1.637-4.295,0-5.933s4.292-1.636,5.931,0.002c1.637,1.637,1.637,4.292,0,5.931
							C372.747,633.623,370.093,633.622,368.457,631.985z"/>
						<circle cx="363.516" cy="636.926" r="4.192"/>
						<path d="M352.641,647.799c-1.635-1.638-1.636-4.294,0-5.931c1.64-1.638,4.294-1.637,5.933,0c1.637,1.637,1.638,4.293,0,5.93
							C356.934,649.438,354.28,649.438,352.641,647.799z"/>
						<path d="M344.737,655.706c-1.64-1.637-1.64-4.294-0.001-5.933c1.636-1.636,4.291-1.635,5.931,0.002
							c1.635,1.637,1.636,4.292-0.001,5.929C349.027,657.342,346.371,657.343,344.737,655.706z"/>
						<path d="M336.827,663.612c-1.635-1.639-1.637-4.292,0-5.931c1.637-1.637,4.294-1.637,5.931,0c1.639,1.64,1.641,4.292,0,5.931
							C341.121,665.249,338.466,665.248,336.827,663.612z"/>
						<path d="M328.921,671.519c-1.636-1.636-1.637-4.293,0-5.93c1.637-1.639,4.294-1.639,5.93,0.002
							c1.638,1.634,1.638,4.293,0,5.928C333.215,673.157,330.559,673.157,328.921,671.519z"/>
						<circle cx="323.98" cy="676.462" r="4.194"/>
						<circle cx="316.073" cy="684.369" r="4.193"/>
						<path d="M305.202,695.24c-1.639-1.636-1.641-4.292-0.001-5.931c1.637-1.637,4.293-1.636,5.931,0.001
							c1.636,1.638,1.637,4.294-0.003,5.93C309.494,696.878,306.838,696.877,305.202,695.24z"/>
					</g>
					<g>
						<circle cx="640.262" cy="344.364" r="4.192"/>
						<path d="M629.388,355.239c-1.637-1.641-1.637-4.294,0.002-5.933c1.637-1.637,4.291-1.637,5.928,0.002
							c1.641,1.639,1.641,4.292,0.002,5.931C633.685,356.876,631.028,356.876,629.388,355.239z"/>
						<circle cx="624.447" cy="360.179" r="4.195"/>
						<path d="M613.575,371.052c-1.639-1.639-1.639-4.292,0-5.93c1.637-1.638,4.293-1.64,5.93,0c1.641,1.637,1.639,4.292,0,5.93
							C617.868,372.689,615.212,372.689,613.575,371.052z"/>
						<path d="M605.667,378.959c-1.635-1.64-1.637-4.292,0-5.932c1.639-1.638,4.295-1.639,5.932-0.001
							c1.639,1.641,1.639,4.296,0,5.932C609.962,380.599,607.306,380.598,605.667,378.959z"/>
						<circle cx="600.727" cy="383.9" r="4.194"/>
						<circle cx="592.817" cy="391.808" r="4.193"/>
						<circle cx="584.912" cy="399.714" r="4.192"/>
						<circle cx="577.005" cy="407.622" r="4.193"/>
						<circle cx="569.098" cy="415.527" r="4.194"/>
						<circle cx="561.19" cy="423.435" r="4.193"/>
						<path d="M550.317,434.309c-1.637-1.64-1.637-4.293,0-5.932c1.639-1.638,4.293-1.639,5.932-0.001
							c1.639,1.641,1.639,4.295,0,5.932C554.612,435.947,551.956,435.944,550.317,434.309z"/>
						<circle cx="545.376" cy="439.249" r="4.193"/>
						<circle cx="537.469" cy="447.156" r="4.194"/>
						<circle cx="529.563" cy="455.063" r="4.192"/>
						<circle cx="521.654" cy="462.971" r="4.194"/>
						<path d="M510.784,473.843c-1.639-1.639-1.639-4.292,0-5.931c1.637-1.638,4.291-1.637,5.93-0.001
							c1.637,1.64,1.639,4.293,0.002,5.933C515.075,475.481,512.421,475.481,510.784,473.843z"/>
						<circle cx="505.842" cy="478.785" r="4.194"/>
						<path d="M494.97,489.655c-1.639-1.637-1.639-4.291,0-5.928c1.639-1.641,4.293-1.641,5.93,0
							c1.641,1.637,1.641,4.292,0.002,5.932C499.263,491.296,496.608,491.296,494.97,489.655z"/>
						<circle cx="490.026" cy="494.6" r="4.193"/>
						<path d="M479.154,505.472c-1.639-1.639-1.639-4.293,0.001-5.933c1.638-1.635,4.293-1.635,5.93-0.001
							c1.637,1.641,1.638,4.296,0,5.934C483.447,507.108,480.792,507.108,479.154,505.472z"/>
						<circle cx="474.213" cy="510.413" r="4.194"/>
						<circle cx="466.308" cy="518.321" r="4.194"/>
						<path d="M455.437,529.192c-1.641-1.64-1.641-4.292-0.002-5.93c1.636-1.639,4.29-1.638,5.929-0.001
							c1.639,1.64,1.639,4.291,0.002,5.933C459.729,530.831,457.07,530.83,455.437,529.192z"/>
						<circle cx="450.491" cy="534.134" r="4.193"/>
						<circle cx="442.584" cy="542.041" r="4.193"/>
						<path d="M431.712,552.913c-1.638-1.637-1.637-4.292,0.002-5.931c1.637-1.637,4.292-1.638,5.93-0.001
							c1.638,1.638,1.637,4.295,0,5.931C436.006,554.554,433.351,554.554,431.712,552.913z"/>
						<path d="M423.807,560.818c-1.638-1.637-1.638-4.292,0-5.929c1.637-1.638,4.291-1.638,5.929,0s1.639,4.293,0.001,5.93
							C428.1,562.46,425.444,562.459,423.807,560.818z"/>
						<path d="M415.899,568.729c-1.639-1.641-1.639-4.293-0.001-5.932s4.293-1.639,5.93-0.002c1.639,1.641,1.638,4.293,0.002,5.934
							C420.192,570.367,417.537,570.366,415.899,568.729z"/>
						<path d="M407.99,576.635c-1.639-1.636-1.637-4.294,0-5.931c1.641-1.639,4.293-1.637,5.934,0.002
							c1.636,1.638,1.637,4.293,0,5.93C412.283,578.273,409.631,578.273,407.99,576.635z"/>
						<circle cx="403.049" cy="581.578" r="4.192"/>
						<circle cx="395.142" cy="589.482" r="4.193"/>
						<path d="M384.271,600.354c-1.638-1.638-1.638-4.292-0.001-5.929c1.641-1.639,4.293-1.638,5.932-0.002
							c1.637,1.64,1.637,4.295,0,5.935C388.563,601.993,385.91,601.993,384.271,600.354z"/>
						<circle cx="379.328" cy="605.297" r="4.194"/>
						<path d="M368.457,616.168c-1.637-1.635-1.637-4.292,0-5.93c1.637-1.636,4.291-1.637,5.931,0.003
							c1.637,1.638,1.638,4.293,0,5.928C372.75,617.809,370.096,617.809,368.457,616.168z"/>
						<circle cx="363.516" cy="621.111" r="4.193"/>
						<path d="M352.641,631.984c-1.638-1.638-1.637-4.292,0.001-5.931c1.639-1.639,4.292-1.639,5.932-0.002
							c1.638,1.641,1.639,4.296,0,5.934C356.934,633.621,354.282,633.621,352.641,631.984z"/>
						<path d="M344.737,639.892c-1.642-1.638-1.64-4.294-0.001-5.931c1.636-1.639,4.291-1.639,5.931,0.001
							c1.638,1.638,1.638,4.293,0,5.931C349.027,641.527,346.375,641.528,344.737,639.892z"/>
						<path d="M336.828,647.797c-1.639-1.636-1.637-4.292,0-5.93c1.636-1.637,4.292-1.637,5.928,0.001
							c1.641,1.638,1.642,4.293,0.001,5.929C341.121,649.438,338.466,649.438,336.828,647.797z"/>
						<path d="M328.922,655.707c-1.638-1.641-1.638-4.295-0.001-5.932c1.636-1.637,4.292-1.638,5.93-0.001
							c1.638,1.638,1.637,4.295,0.001,5.934C333.214,657.342,330.561,657.343,328.922,655.707z"/>
						<path d="M321.014,663.611c-1.637-1.638-1.637-4.291,0-5.93c1.638-1.638,4.292-1.638,5.93-0.001
							c1.639,1.641,1.638,4.293,0,5.932C325.308,665.251,322.652,665.251,321.014,663.611z"/>
						<path d="M313.107,671.518c-1.637-1.635-1.638-4.292,0-5.929c1.638-1.638,4.291-1.639,5.931,0.002
							c1.637,1.637,1.637,4.293,0,5.928C317.399,673.157,314.746,673.158,313.107,671.518z"/>
						<path d="M305.202,679.428c-1.64-1.641-1.64-4.294-0.002-5.931c1.638-1.64,4.293-1.64,5.928,0
							c1.641,1.638,1.64,4.29,0.003,5.932C309.494,681.065,306.839,681.064,305.202,679.428z"/>
						<path d="M297.292,687.333c-1.637-1.639-1.637-4.292,0-5.93c1.639-1.638,4.292-1.638,5.93,0
							c1.641,1.638,1.64,4.291,0.001,5.931C301.584,688.971,298.932,688.972,297.292,687.333z"/>
					</g>
					<g>
						<circle cx="632.354" cy="336.458" r="4.193"/>
						<circle cx="624.447" cy="344.365" r="4.193"/>
						<circle cx="616.541" cy="352.274" r="4.194"/>
						<circle cx="608.633" cy="360.18" r="4.195"/>
						<circle cx="600.727" cy="368.087" r="4.194"/>
						<path d="M589.854,378.958c-1.639-1.638-1.639-4.291-0.002-5.928c1.639-1.641,4.293-1.641,5.932-0.002
							c1.639,1.637,1.639,4.292,0,5.931C594.146,380.597,591.491,380.597,589.854,378.958z"/>
						<circle cx="584.913" cy="383.901" r="4.193"/>
						<circle cx="577.005" cy="391.808" r="4.193"/>
						<circle cx="569.098" cy="399.714" r="4.193"/>
						<circle cx="561.19" cy="407.622" r="4.193"/>
						<path d="M550.319,418.493c-1.639-1.639-1.639-4.291,0-5.93c1.637-1.638,4.293-1.638,5.93-0.002
							c1.639,1.641,1.637,4.295,0,5.932C554.612,420.132,551.956,420.132,550.319,418.493z"/>
						<circle cx="545.376" cy="423.436" r="4.194"/>
						<path d="M534.505,434.308c-1.639-1.639-1.639-4.291,0-5.93c1.637-1.639,4.293-1.639,5.93,0
							c1.639,1.638,1.639,4.292,0.002,5.93C538.796,435.945,536.144,435.945,534.505,434.308z"/>
						<path d="M526.599,442.215c-1.639-1.637-1.637-4.293,0-5.93c1.637-1.638,4.291-1.638,5.932-0.001
							c1.637,1.638,1.635,4.293,0,5.931C530.89,443.854,528.235,443.854,526.599,442.215z"/>
						<circle cx="521.655" cy="447.157" r="4.193"/>
						<circle cx="513.749" cy="455.063" r="4.193"/>
						<circle cx="505.842" cy="462.971" r="4.195"/>
						<circle cx="497.936" cy="470.878" r="4.194"/>
						<circle cx="490.028" cy="478.785" r="4.193"/>
						<circle cx="482.121" cy="486.691" r="4.193"/>
						<circle cx="474.213" cy="494.6" r="4.193"/>
						<circle cx="466.307" cy="502.506" r="4.194"/>
						<circle cx="458.399" cy="510.413" r="4.192"/>
						<circle cx="450.492" cy="518.321" r="4.193"/>
						<circle cx="442.585" cy="526.228" r="4.193"/>
						<path d="M431.713,537.1c-1.638-1.638-1.637-4.293,0-5.93c1.638-1.638,4.292-1.638,5.931,0c1.637,1.637,1.637,4.293,0,5.93
							C436.003,538.736,433.351,538.737,431.713,537.1z"/>
						<circle cx="426.771" cy="542.041" r="4.194"/>
						<circle cx="418.865" cy="549.948" r="4.193"/>
						<circle cx="410.957" cy="557.855" r="4.195"/>
						<circle cx="403.05" cy="565.763" r="4.193"/>
						<path d="M392.178,576.635c-1.638-1.638-1.638-4.292,0-5.93c1.637-1.637,4.291-1.637,5.929,0.001
							c1.641,1.636,1.64,4.291,0.002,5.929C396.47,578.273,393.815,578.272,392.178,576.635z"/>
						<path d="M384.271,584.542c-1.639-1.639-1.639-4.293-0.002-5.929c1.641-1.641,4.293-1.641,5.932-0.002
							c1.638,1.638,1.637,4.294-0.001,5.932C388.563,586.18,385.91,586.181,384.271,584.542z"/>
						<circle cx="379.329" cy="589.484" r="4.192"/>
						<circle cx="371.422" cy="597.391" r="4.193"/>
						<circle cx="363.516" cy="605.298" r="4.193"/>
						<circle cx="355.607" cy="613.206" r="4.194"/>
						<path d="M344.738,624.077c-1.641-1.64-1.641-4.292-0.002-5.932c1.638-1.637,4.291-1.637,5.931,0
							c1.637,1.64,1.635,4.292-0.001,5.932C349.027,625.716,346.372,625.716,344.738,624.077z"/>
						<path d="M336.827,631.985c-1.638-1.638-1.636-4.294,0-5.93c1.638-1.639,4.293-1.641,5.931-0.003
							c1.639,1.64,1.639,4.294,0,5.933C341.122,633.621,338.465,633.623,336.827,631.985z"/>
						<circle cx="331.886" cy="636.926" r="4.192"/>
						<circle cx="323.98" cy="644.833" r="4.193"/>
						<path d="M313.108,655.707c-1.64-1.64-1.638-4.295,0-5.934c1.637-1.636,4.29-1.636,5.93,0c1.636,1.639,1.637,4.294-0.001,5.932
							C317.399,657.343,314.745,657.343,313.108,655.707z"/>
						<circle cx="308.165" cy="660.646" r="4.193"/>
						<path d="M297.292,671.518c-1.637-1.635-1.635-4.29,0.002-5.928c1.637-1.639,4.291-1.64,5.928,0.001
							c1.64,1.636,1.64,4.29,0,5.929C301.585,673.157,298.932,673.157,297.292,671.518z"/>
						<circle cx="292.352" cy="676.463" r="4.194"/>
					</g>
				</g>
				
					<rect x="157.927" y="412.611" transform="matrix(0.7071 -0.7071 0.7071 0.7071 -195.4935 444.1279)" clip-path="url(#SVGID_2_)" width="560.872" height="90.868"/>
			</g>
			<path d="M639.733,125.615c8.811,8.81,8.811,23.095,0,31.905L498.819,298.435c-8.81,8.81-23.095,8.81-31.904-0.001l0,0
				c-8.811-8.81-8.811-23.095-0.001-31.904l140.915-140.915C616.64,116.804,630.925,116.805,639.733,125.615L639.733,125.615z"/>
			<path d="M716.31,151.659c8.811,8.812,8.811,23.094,0,31.905l-64.697,64.696c-8.809,8.81-23.094,8.812-31.904,0l0,0
				c-8.811-8.81-8.811-23.095,0-31.905l64.695-64.696C693.216,142.848,707.499,142.849,716.31,151.659L716.31,151.659z"/>
			<path d="M295.667,158.322c8.811,8.811,8.811,23.094,0,31.905L184.301,301.592c-8.809,8.811-23.093,8.812-31.904,0l0,0
				c-8.811-8.81-8.811-23.096,0-31.905l111.364-111.365C272.574,149.511,286.857,149.512,295.667,158.322L295.667,158.322z"/>
			<path d="M652.649,497.305c8.811,8.811,8.811,23.094,0.001,31.904L541.284,640.574c-8.809,8.811-23.094,8.813-31.904,0l0,0
				c-8.811-8.809-8.811-23.096,0-31.904l111.363-111.365C629.557,488.494,643.839,488.494,652.649,497.305L652.649,497.305z"/>
			<circle cx="509.303" cy="101.635" r="23.453"/>
			<circle cx="663.795" cy="100.135" r="23.453"/>
			<circle cx="480.805" cy="667.106" r="23.453"/>
		</g>
	</g>
</g>
</svg>
