<?xml version="1.0" encoding="iso-8859-1"?>
<!-- Generator: Adobe Illustrator 19.0.0, SVG Export Plug-In . SVG Version: 6.00 Build 0)  -->
<svg version="1.1" id="Layer_1" xmlns="http://www.w3.org/2000/svg" xmlns:xlink="http://www.w3.org/1999/xlink" x="0px" y="0px"
	 viewBox="0 0 512 512" style="enable-background:new 0 0 512 512;" xml:space="preserve">
<path style="fill:#5D9BEB;" d="M0,256.006C0,397.402,114.606,512.004,255.996,512C397.394,512.004,512,397.402,512,256.006
	C512.009,114.61,397.394,0,255.996,0C114.606,0,0,114.614,0,256.006z"/>
<g>
	<path style="fill:#4988DB;" d="M508.399,298.651c-0.342-0.339-176.863-176.847-177.353-177.353
		c-18.14-19.633-45.642-32.186-76.388-32.186c-53.911,0-96.144,37.836-96.144,86.135c0,2.37,1.223,4.371,2.995,5.678
		c0.427,0.579,90.045,90.322,90.318,90.59v68.825c0,2.372,1.223,4.372,2.995,5.679c0.427,0.579,129.424,129.575,130.002,130.002
		c0.213,0.29,0.5,0.5,0.749,0.749C449.522,439.161,495.659,374.591,508.399,298.651z"/>
	<path style="fill:#4988DB;" d="M269.753,399.274c-2.633-3.058-6.401-5.099-10.749-5.099c-7.936,0-14.355,6.434-14.355,14.355
		c0,4.355,2.036,8.124,5.093,10.755c0.468,0.545,0.949,1.025,1.494,1.493c0.468,0.545,78.653,78.73,79.198,79.198
		c0.243,0.284,0.518,0.521,0.777,0.777c9.97-3.059,19.653-6.755,29.063-10.958C359.994,489.507,270.299,399.744,269.753,399.274z"/>
</g>
<g>
	<path style="fill:#F4F6F9;" d="M259.004,394.175c-7.935,0-14.356,6.434-14.356,14.356c0,7.935,6.421,14.356,14.356,14.356
		c7.921,0,14.356-6.421,14.356-14.356C273.36,400.609,266.925,394.175,259.004,394.175z"/>
	<path style="fill:#F4F6F9;" d="M254.658,89.114c-53.911,0-96.145,37.835-96.145,86.135c0,3.964,3.211,7.178,7.178,7.178
		c3.967,0,7.178-3.214,7.178-7.178c0-40.25,35.924-71.779,81.789-71.779c45.788,0,84.474,33.658,84.474,73.493
		c0,41.897-34.446,73.49-80.128,73.49c-3.968,0-7.178,3.214-7.178,7.178v82.711c0,3.968,3.211,7.178,7.178,7.178
		c3.968,0,7.178-3.211,7.178-7.178v-75.772c49.503-3.309,87.306-40.596,87.306-87.607
		C353.487,128.522,309.151,89.114,254.658,89.114z"/>
</g>
<g>
</g>
<g>
</g>
<g>
</g>
<g>
</g>
<g>
</g>
<g>
</g>
<g>
</g>
<g>
</g>
<g>
</g>
<g>
</g>
<g>
</g>
<g>
</g>
<g>
</g>
<g>
</g>
<g>
</g>
</svg>
